<svg width="354" height="354" viewBox="0 0 354 354" fill="none" xmlns="http://www.w3.org/2000/svg">
<g filter="url(#filter0_f_11_140)">
<circle cx="176.62" cy="176.62" r="76.6203" fill="#FFC701" fill-opacity="0.35"/>
</g>
<circle cx="176.62" cy="179.132" r="73.1083" fill="url(#paint0_linear_11_140)" stroke="url(#paint1_linear_11_140)" stroke-width="2"/>
<mask id="mask0_11_140" style="mask-type:alpha" maskUnits="userSpaceOnUse" x="102" y="146" width="149" height="108">
<path d="M250.728 179.132C250.728 220.061 217.549 253.241 176.62 253.241C135.691 253.241 102.512 220.061 102.512 179.132C102.512 138.204 130.039 147.731 170.968 147.731C211.897 147.731 250.728 138.204 250.728 179.132Z" fill="url(#paint2_linear_11_140)"/>
</mask>
<g mask="url(#mask0_11_140)">
<g filter="url(#filter1_f_11_140)">
<path fill-rule="evenodd" clip-rule="evenodd" d="M289.667 314.788C289.667 344.618 265.485 368.799 235.656 368.799C235.446 368.799 235.237 368.798 235.028 368.796V368.799H45.361L45.3634 368.796C45.1535 368.799 44.9433 368.8 44.7328 368.8C14.9033 368.8 -9.27832 344.618 -9.27832 314.789C-9.27832 284.959 14.9033 260.778 44.7328 260.778C70.4449 260.778 91.9606 278.744 97.4104 302.808L115.701 279.618L172.852 260.777H235.028V260.781C235.237 260.778 235.446 260.777 235.656 260.777C265.485 260.777 289.667 284.959 289.667 314.788Z" fill="#E18700"/>
</g>
</g>
<defs>
<filter id="filter0_f_11_140" x="0" y="0" width="353.24" height="353.241" filterUnits="userSpaceOnUse" color-interpolation-filters="sRGB">
<feFlood flood-opacity="0" result="BackgroundImageFix"/>
<feBlend mode="normal" in="SourceGraphic" in2="BackgroundImageFix" result="shape"/>
<feGaussianBlur stdDeviation="50" result="effect1_foregroundBlur_11_140"/>
</filter>
<filter id="filter1_f_11_140" x="-23.2783" y="246.777" width="326.945" height="136.023" filterUnits="userSpaceOnUse" color-interpolation-filters="sRGB">
<feFlood flood-opacity="0" result="BackgroundImageFix"/>
<feBlend mode="normal" in="SourceGraphic" in2="BackgroundImageFix" result="shape"/>
<feGaussianBlur stdDeviation="7" result="effect1_foregroundBlur_11_140"/>
</filter>
<linearGradient id="paint0_linear_11_140" x1="176.62" y1="105.024" x2="176.62" y2="253.241" gradientUnits="userSpaceOnUse">
<stop stop-color="#FFE600"/>
<stop offset="1" stop-color="#FF7A00"/>
</linearGradient>
<linearGradient id="paint1_linear_11_140" x1="176.62" y1="105.024" x2="176.62" y2="253.241" gradientUnits="userSpaceOnUse">
<stop stop-color="white"/>
<stop offset="1" stop-color="white" stop-opacity="0"/>
</linearGradient>
<linearGradient id="paint2_linear_11_140" x1="176.62" y1="105.024" x2="176.62" y2="253.241" gradientUnits="userSpaceOnUse">
<stop stop-color="#FFD600"/>
<stop offset="1" stop-color="#FF7A00"/>
</linearGradient>
</defs>
</svg>
