<svg width="317" height="328" viewBox="0 0 317 328" fill="none" xmlns="http://www.w3.org/2000/svg">
<g filter="url(#filter0_f_11_100)">
<circle cx="122.62" cy="120.62" r="76.6203" fill="#FFC701" fill-opacity="0.5"/>
</g>
<circle cx="122.62" cy="123.132" r="73.1083" fill="url(#paint0_linear_11_100)" stroke="url(#paint1_linear_11_100)" stroke-width="2"/>
<mask id="mask0_11_100" style="mask-type:alpha" maskUnits="userSpaceOnUse" x="48" y="90" width="149" height="108">
<path d="M196.728 123.132C196.728 164.061 163.549 197.241 122.62 197.241C81.6911 197.241 48.5117 164.061 48.5117 123.132C48.5117 82.2036 76.0388 91.7307 116.968 91.7307C157.897 91.7307 196.728 82.2036 196.728 123.132Z" fill="url(#paint2_linear_11_100)"/>
</mask>
<g mask="url(#mask0_11_100)">
<g filter="url(#filter1_f_11_100)">
<path fill-rule="evenodd" clip-rule="evenodd" d="M235.667 258.788C235.667 288.618 211.485 312.799 181.656 312.799C181.446 312.799 181.237 312.798 181.028 312.796V312.799H-8.63897L-8.63657 312.796C-8.84651 312.799 -9.05673 312.8 -9.26723 312.8C-39.0967 312.8 -63.2783 288.618 -63.2783 258.789C-63.2783 228.959 -39.0967 204.778 -9.26723 204.778C16.4449 204.778 37.9606 222.744 43.4104 246.808L61.7011 223.618L118.852 204.777H181.028V204.781C181.237 204.778 181.446 204.777 181.656 204.777C211.485 204.777 235.667 228.959 235.667 258.788Z" fill="#E18700"/>
</g>
</g>
<g filter="url(#filter2_bd_11_100)">
<mask id="path-5-inside-1_11_100" fill="white">
<path fill-rule="evenodd" clip-rule="evenodd" d="M247.678 262.997C247.829 262.999 247.981 263 248.132 263C269.69 263 287.166 245.524 287.166 223.967C287.166 202.409 269.69 184.933 248.132 184.933C247.981 184.933 247.829 184.934 247.678 184.936V184.933H237.594C237.959 182.262 238.147 179.535 238.147 176.763C238.147 143.675 211.324 116.852 178.235 116.852C145.147 116.852 118.324 143.675 118.324 176.763C118.324 179.886 118.563 182.952 119.023 185.945C116.174 185.283 113.205 184.933 110.154 184.933C88.5969 184.933 71.1211 202.409 71.1211 223.967C71.1211 245.524 88.5969 263 110.154 263C110.306 263 110.458 262.999 110.61 262.997L110.607 263H247.678V262.997Z"/>
</mask>
<path fill-rule="evenodd" clip-rule="evenodd" d="M247.678 262.997C247.829 262.999 247.981 263 248.132 263C269.69 263 287.166 245.524 287.166 223.967C287.166 202.409 269.69 184.933 248.132 184.933C247.981 184.933 247.829 184.934 247.678 184.936V184.933H237.594C237.959 182.262 238.147 179.535 238.147 176.763C238.147 143.675 211.324 116.852 178.235 116.852C145.147 116.852 118.324 143.675 118.324 176.763C118.324 179.886 118.563 182.952 119.023 185.945C116.174 185.283 113.205 184.933 110.154 184.933C88.5969 184.933 71.1211 202.409 71.1211 223.967C71.1211 245.524 88.5969 263 110.154 263C110.306 263 110.458 262.999 110.61 262.997L110.607 263H247.678V262.997Z" fill="url(#paint3_linear_11_100)" shape-rendering="crispEdges"/>
<path d="M247.678 262.997L247.7 260.998C247.166 260.991 246.651 261.199 246.271 261.575C245.891 261.951 245.678 262.463 245.678 262.997H247.678ZM247.678 184.936H245.678C245.678 185.47 245.891 185.983 246.271 186.358C246.651 186.734 247.166 186.942 247.7 186.936L247.678 184.936ZM247.678 184.933H249.678C249.678 183.829 248.782 182.933 247.678 182.933V184.933ZM237.594 184.933L235.613 184.663C235.535 185.236 235.708 185.814 236.088 186.249C236.468 186.684 237.017 186.933 237.594 186.933V184.933ZM119.023 185.945L118.571 187.894C119.217 188.044 119.896 187.863 120.383 187.412C120.87 186.961 121.101 186.297 121 185.641L119.023 185.945ZM110.61 262.997L112.179 264.237C112.657 263.632 112.744 262.807 112.404 262.115C112.064 261.423 111.357 260.989 110.587 260.998L110.61 262.997ZM110.607 263L109.038 261.76C108.563 262.362 108.473 263.182 108.808 263.872C109.142 264.562 109.841 265 110.607 265V263ZM247.678 263V265C248.782 265 249.678 264.105 249.678 263H247.678ZM247.655 264.997C247.814 264.999 247.973 265 248.132 265V261C247.988 261 247.844 260.999 247.7 260.998L247.655 264.997ZM248.132 265C270.794 265 289.166 246.629 289.166 223.967H285.166C285.166 244.42 268.585 261 248.132 261V265ZM289.166 223.967C289.166 201.305 270.794 182.933 248.132 182.933V186.933C268.585 186.933 285.166 203.514 285.166 223.967H289.166ZM248.132 182.933C247.973 182.933 247.814 182.934 247.655 182.936L247.7 186.936C247.844 186.934 247.988 186.933 248.132 186.933V182.933ZM245.678 184.933V184.936H249.678V184.933H245.678ZM237.594 186.933H247.678V182.933H237.594V186.933ZM239.576 185.204C239.953 182.443 240.147 179.625 240.147 176.763H236.147C236.147 179.444 235.965 182.081 235.613 184.663L239.576 185.204ZM240.147 176.763C240.147 142.571 212.428 114.852 178.235 114.852V118.852C210.219 118.852 236.147 144.78 236.147 176.763H240.147ZM178.235 114.852C144.043 114.852 116.324 142.571 116.324 176.763H120.324C120.324 144.78 146.252 118.852 178.235 118.852V114.852ZM116.324 176.763C116.324 179.988 116.571 183.156 117.046 186.249L121 185.641C120.555 182.748 120.324 179.783 120.324 176.763H116.324ZM119.476 183.997C116.479 183.301 113.358 182.933 110.154 182.933V186.933C113.052 186.933 115.869 187.266 118.571 187.894L119.476 183.997ZM110.154 182.933C87.4923 182.933 69.1211 201.305 69.1211 223.967H73.1211C73.1211 203.514 89.7015 186.933 110.154 186.933V182.933ZM69.1211 223.967C69.1211 246.629 87.4923 265 110.154 265V261C89.7015 261 73.1211 244.42 73.1211 223.967H69.1211ZM110.154 265C110.314 265 110.473 264.999 110.632 264.997L110.587 260.998C110.443 260.999 110.299 261 110.154 261V265ZM112.177 264.239L112.179 264.237L109.04 261.758L109.038 261.76L112.177 264.239ZM247.678 261H110.607V265H247.678V261ZM245.678 262.997V263H249.678V262.997H245.678Z" fill="url(#paint4_linear_11_100)" mask="url(#path-5-inside-1_11_100)"/>
</g>
<defs>
<filter id="filter0_f_11_100" x="2" y="0" width="241.24" height="241.241" filterUnits="userSpaceOnUse" color-interpolation-filters="sRGB">
<feFlood flood-opacity="0" result="BackgroundImageFix"/>
<feBlend mode="normal" in="SourceGraphic" in2="BackgroundImageFix" result="shape"/>
<feGaussianBlur stdDeviation="22" result="effect1_foregroundBlur_11_100"/>
</filter>
<filter id="filter1_f_11_100" x="-77.2783" y="190.777" width="326.945" height="136.023" filterUnits="userSpaceOnUse" color-interpolation-filters="sRGB">
<feFlood flood-opacity="0" result="BackgroundImageFix"/>
<feBlend mode="normal" in="SourceGraphic" in2="BackgroundImageFix" result="shape"/>
<feGaussianBlur stdDeviation="7" result="effect1_foregroundBlur_11_100"/>
</filter>
<filter id="filter2_bd_11_100" x="0.121094" y="81.8518" width="316.045" height="246.148" filterUnits="userSpaceOnUse" color-interpolation-filters="sRGB">
<feFlood flood-opacity="0" result="BackgroundImageFix"/>
<feGaussianBlur in="BackgroundImageFix" stdDeviation="7"/>
<feComposite in2="SourceAlpha" operator="in" result="effect1_backgroundBlur_11_100"/>
<feColorMatrix in="SourceAlpha" type="matrix" values="0 0 0 0 0 0 0 0 0 0 0 0 0 0 0 0 0 0 127 0" result="hardAlpha"/>
<feOffset dx="-21" dy="15"/>
<feGaussianBlur stdDeviation="25"/>
<feComposite in2="hardAlpha" operator="out"/>
<feColorMatrix type="matrix" values="0 0 0 0 0.113438 0 0 0 0 0.148981 0 0 0 0 0.275 0 0 0 0.25 0"/>
<feBlend mode="normal" in2="effect1_backgroundBlur_11_100" result="effect2_dropShadow_11_100"/>
<feBlend mode="normal" in="SourceGraphic" in2="effect2_dropShadow_11_100" result="shape"/>
</filter>
<linearGradient id="paint0_linear_11_100" x1="122.62" y1="49.0241" x2="122.62" y2="197.241" gradientUnits="userSpaceOnUse">
<stop stop-color="#FFE600"/>
<stop offset="1" stop-color="#FF7A00"/>
</linearGradient>
<linearGradient id="paint1_linear_11_100" x1="122.62" y1="49.0241" x2="122.62" y2="197.241" gradientUnits="userSpaceOnUse">
<stop stop-color="white"/>
<stop offset="1" stop-color="white" stop-opacity="0"/>
</linearGradient>
<linearGradient id="paint2_linear_11_100" x1="122.62" y1="49.0242" x2="122.62" y2="197.241" gradientUnits="userSpaceOnUse">
<stop stop-color="#FFD600"/>
<stop offset="1" stop-color="#FF7A00"/>
</linearGradient>
<linearGradient id="paint3_linear_11_100" x1="189.192" y1="121.248" x2="189.192" y2="279.514" gradientUnits="userSpaceOnUse">
<stop stop-color="white"/>
<stop offset="1" stop-color="white" stop-opacity="0"/>
</linearGradient>
<linearGradient id="paint4_linear_11_100" x1="179.143" y1="116.852" x2="179.143" y2="263" gradientUnits="userSpaceOnUse">
<stop stop-color="white"/>
<stop offset="1" stop-color="white" stop-opacity="0"/>
</linearGradient>
</defs>
</svg>
