<svg width="377" height="264" viewBox="0 0 377 264" fill="none" xmlns="http://www.w3.org/2000/svg">
<g filter="url(#filter0_d_305_113)">
<path d="M59 193.644C71.5237 181.806 109.841 161.68 162.92 175.886C229.269 193.644 296.816 211.402 318 193.644" stroke="url(#paint0_linear_305_113)" stroke-width="18" stroke-linecap="round" stroke-linejoin="round"/>
<path d="M59 154.89C71.5237 143.445 109.841 123.99 162.92 137.723C229.269 154.89 296.816 172.056 318 154.89" stroke="url(#paint1_linear_305_113)" stroke-width="18" stroke-linecap="round" stroke-linejoin="round"/>
<path d="M59 116.644C71.5237 104.806 109.841 84.6798 162.92 98.8862C229.269 116.644 296.816 134.402 318 116.644" stroke="url(#paint2_linear_305_113)" stroke-width="18" stroke-linecap="round" stroke-linejoin="round"/>
<path d="M59 78.6444C71.5237 66.8056 109.841 46.6798 162.92 60.8862C229.269 78.6444 296.816 96.4025 318 78.6444" stroke="url(#paint3_linear_305_113)" stroke-width="18" stroke-linecap="round" stroke-linejoin="round"/>
</g>
<defs>
<filter id="filter0_d_305_113" x="0" y="0.998108" width="377" height="263.002" filterUnits="userSpaceOnUse" color-interpolation-filters="sRGB">
<feFlood flood-opacity="0" result="BackgroundImageFix"/>
<feColorMatrix in="SourceAlpha" type="matrix" values="0 0 0 0 0 0 0 0 0 0 0 0 0 0 0 0 0 0 127 0" result="hardAlpha"/>
<feOffset dy="4"/>
<feGaussianBlur stdDeviation="25"/>
<feComposite in2="hardAlpha" operator="out"/>
<feColorMatrix type="matrix" values="0 0 0 0 0 0 0 0 0 0 0 0 0 0 0 0 0 0 0.25 0"/>
<feBlend mode="normal" in2="BackgroundImageFix" result="effect1_dropShadow_305_113"/>
<feBlend mode="normal" in="SourceGraphic" in2="effect1_dropShadow_305_113" result="shape"/>
</filter>
<linearGradient id="paint0_linear_305_113" x1="188.5" y1="171" x2="188.5" y2="201" gradientUnits="userSpaceOnUse">
<stop stop-color="white" stop-opacity="0.83"/>
<stop offset="1" stop-color="#DFDFDF" stop-opacity="0.49"/>
</linearGradient>
<linearGradient id="paint1_linear_305_113" x1="188.5" y1="133" x2="188.5" y2="162" gradientUnits="userSpaceOnUse">
<stop stop-color="white" stop-opacity="0.83"/>
<stop offset="1" stop-color="#DFDFDF" stop-opacity="0.49"/>
</linearGradient>
<linearGradient id="paint2_linear_305_113" x1="188.5" y1="94" x2="188.5" y2="124" gradientUnits="userSpaceOnUse">
<stop stop-color="white" stop-opacity="0.83"/>
<stop offset="1" stop-color="#DFDFDF" stop-opacity="0.49"/>
</linearGradient>
<linearGradient id="paint3_linear_305_113" x1="188.5" y1="56" x2="188.5" y2="86" gradientUnits="userSpaceOnUse">
<stop stop-color="white" stop-opacity="0.83"/>
<stop offset="1" stop-color="#DFDFDF" stop-opacity="0.49"/>
</linearGradient>
</defs>
</svg>
