<svg width="74" height="80" viewBox="0 0 74 80" fill="none" xmlns="http://www.w3.org/2000/svg">
<g filter="url(#filter0_di_13_989)">
<circle cx="34" cy="38" r="29" fill="url(#paint0_linear_13_989)"/>
<circle cx="34" cy="38" r="28.95" stroke="url(#paint1_linear_13_989)" stroke-width="0.1"/>
</g>
<mask id="mask0_13_989" style="mask-type:alpha" maskUnits="userSpaceOnUse" x="5" y="9" width="58" height="58">
<circle cx="34" cy="38" r="29" fill="url(#paint2_linear_13_989)"/>
</mask>
<g mask="url(#mask0_13_989)">
<g filter="url(#filter1_f_13_989)">
<path d="M63 38C63 54.0163 50.0163 67 34 67C17.9837 67 5 54.0163 5 38C5 21.9837 17.9837 9 34 9C50.0163 9 63 21.9837 63 38ZM7.9 38C7.9 52.4146 19.5854 64.1 34 64.1C48.4146 64.1 60.1 52.4146 60.1 38C60.1 23.5854 48.4146 11.9 34 11.9C19.5854 11.9 7.9 23.5854 7.9 38Z" fill="url(#paint3_linear_13_989)"/>
</g>
<path d="M22.2692 38.1289C22.2692 39.2773 23.1989 40.207 24.3474 40.207H31.9352V47.7949C31.9352 48.9297 32.8513 49.873 33.9997 49.873C35.1481 49.873 36.0778 48.9297 36.0778 47.7949V40.207H43.6657C44.8005 40.207 45.7302 39.2773 45.7302 38.1289C45.7302 36.9941 44.8005 36.0645 43.6657 36.0645H36.0778V28.4766C36.0778 27.3418 35.1481 26.3984 33.9997 26.3984C32.8513 26.3984 31.9352 27.3418 31.9352 28.4766V36.0645H24.3474C23.1989 36.0645 22.2692 36.9941 22.2692 38.1289Z" fill="#515253"/>
</g>
<defs>
<filter id="filter0_di_13_989" x="0" y="0" width="80" height="80" filterUnits="userSpaceOnUse" color-interpolation-filters="sRGB">
<feFlood flood-opacity="0" result="BackgroundImageFix"/>
<feColorMatrix in="SourceAlpha" type="matrix" values="0 0 0 0 0 0 0 0 0 0 0 0 0 0 0 0 0 0 127 0" result="hardAlpha"/>
<feOffset dx="6" dy="2"/>
<feGaussianBlur stdDeviation="5.5"/>
<feComposite in2="hardAlpha" operator="out"/>
<feColorMatrix type="matrix" values="0 0 0 0 0.375 0 0 0 0 0.375 0 0 0 0 0.375 0 0 0 0.2 0"/>
<feBlend mode="normal" in2="BackgroundImageFix" result="effect1_dropShadow_13_989"/>
<feBlend mode="normal" in="SourceGraphic" in2="effect1_dropShadow_13_989" result="shape"/>
<feColorMatrix in="SourceAlpha" type="matrix" values="0 0 0 0 0 0 0 0 0 0 0 0 0 0 0 0 0 0 127 0" result="hardAlpha"/>
<feOffset dx="1" dy="1"/>
<feGaussianBlur stdDeviation="0.25"/>
<feComposite in2="hardAlpha" operator="arithmetic" k2="-1" k3="1"/>
<feColorMatrix type="matrix" values="0 0 0 0 1 0 0 0 0 1 0 0 0 0 1 0 0 0 1 0"/>
<feBlend mode="normal" in2="shape" result="effect2_innerShadow_13_989"/>
</filter>
<filter id="filter1_f_13_989" x="3" y="7" width="62" height="62" filterUnits="userSpaceOnUse" color-interpolation-filters="sRGB">
<feFlood flood-opacity="0" result="BackgroundImageFix"/>
<feBlend mode="normal" in="SourceGraphic" in2="BackgroundImageFix" result="shape"/>
<feGaussianBlur stdDeviation="1" result="effect1_foregroundBlur_13_989"/>
</filter>
<linearGradient id="paint0_linear_13_989" x1="19" y1="17" x2="50.5" y2="61.8333" gradientUnits="userSpaceOnUse">
<stop stop-color="#F5F5F9"/>
<stop offset="1" stop-color="white"/>
</linearGradient>
<linearGradient id="paint1_linear_13_989" x1="13.8333" y1="18.8333" x2="48.1667" y2="64.5" gradientUnits="userSpaceOnUse">
<stop stop-color="white"/>
<stop offset="1" stop-color="white"/>
</linearGradient>
<linearGradient id="paint2_linear_13_989" x1="19" y1="17" x2="50.5" y2="61.8333" gradientUnits="userSpaceOnUse">
<stop stop-color="#F5F5F9"/>
<stop offset="1" stop-color="#D8D8D8"/>
</linearGradient>
<linearGradient id="paint3_linear_13_989" x1="9.79107" y1="19.2008" x2="34" y2="67" gradientUnits="userSpaceOnUse">
<stop stop-color="white" stop-opacity="0"/>
<stop offset="1" stop-color="white"/>
</linearGradient>
</defs>
</svg>
